# xmcd CD database file
#
# Track frame offsets:
#	150
#	1846
#	20297
#	48222
#	74749
#	96295
#	120829
#	143497
#	166074
#	191723
#	220656
#	234948
#	256603
#	281883
#
# Disc length: 4093 seconds
#
# Revision: 27
# Processed by: cddbd v1.5.2PL0 Copyright (c) Steve Scherf et al.
# Submitted via: CDex 1.70beta2
#
DISCID=b00ffb0e
DTITLE=CHEMISTRY - Second to None
DYEAR=2003
DGENRE=R&B
TTITLE0=Intro-lude ~You're My Second to None~
TTITLE1=It Takes Two
TTITLE2=STILL ECHO
TTITLE3=My Gift to You
TTITLE4=Running Away
TTITLE5=BACK TOGHETHER AGAIN Interlude ~@Electric Lady Studio, NYC~
TTITLE6=No Color Line by 川畑要
TTITLE7=FLOATIN'
TTITLE8=SOLID DREAM
TTITLE9=Let's Get Together Now (Tokyo Calling) Interlude ~@Yuigahama, KAMAKURA~
TTITLE10=RIPTIDE by 堂珍嘉邦
TTITLE11=月夜
TTITLE12=マイウェイ
TTITLE13=君をさがしてた ~New Jersey United~
EXTD=YEAR: 2003
EXTT0=
EXTT1=
EXTT2=
EXTT3=
EXTT4=
EXTT5=
EXTT6=
EXTT7=
EXTT8=
EXTT9=
EXTT10=
EXTT11=
EXTT12=
EXTT13=
PLAYORDER=
